<svg xmlns="http://www.w3.org/2000/svg" width="116.5" height="53.292" viewBox="0 0 116.5 53.292"><defs><style>.a{fill:#ff4a00;}</style></defs><path class="a" d="M69.908,23.419H67a5.586,5.586,0,0,1-.134-.826,9.474,9.474,0,0,1,0-1.831A5.639,5.639,0,0,1,67,19.935h7.237V42.852a10.816,10.816,0,0,1-1.094.133q-.547.042-1.1.044-.525,0-1.049-.044a10.784,10.784,0,0,1-1.094-.134V23.418h0ZM95.1,29.182a8.455,8.455,0,0,0-.335-2.391,6.1,6.1,0,0,0-.983-1.988,4.794,4.794,0,0,0-1.653-1.362,5.191,5.191,0,0,0-2.39-.514,5.264,5.264,0,0,0-4.177,1.653,8.09,8.09,0,0,0-1.765,4.6H95.1ZM83.756,32.488q.089,3.752,1.943,5.494a7.715,7.715,0,0,0,5.472,1.743,16.428,16.428,0,0,0,6.03-1.117,6.73,6.73,0,0,1,.58,1.631,10.631,10.631,0,0,1,.268,1.9,14.918,14.918,0,0,1-3.238.938,22.55,22.55,0,0,1-3.908.313,14.766,14.766,0,0,1-5.361-.871,9.421,9.421,0,0,1-5.808-6.209,16.047,16.047,0,0,1-.67-4.757,16.852,16.852,0,0,1,.648-4.758A10.721,10.721,0,0,1,81.7,22.95a9.6,9.6,0,0,1,3.373-2.591,11.138,11.138,0,0,1,4.8-.961,10.043,10.043,0,0,1,4.154.8,8.448,8.448,0,0,1,2.993,2.211,9.609,9.609,0,0,1,1.831,3.35,13.724,13.724,0,0,1,.626,4.222q0,.626-.045,1.317-.037.592-.089,1.184H83.755Zm20.6-12.553q.466-.085.938-.134c.3-.029.61-.044.938-.044s.655.015.983.044a7.372,7.372,0,0,1,.894.134q.133.67.267,1.765a15.69,15.69,0,0,1,.135,1.854,9.254,9.254,0,0,1,2.479-2.636,6.575,6.575,0,0,1,3.953-1.117q.357,0,.737.023c.217.012.433.034.648.066a7.254,7.254,0,0,1,.134.849q.044.446.044.938a9.767,9.767,0,0,1-.067,1.117q-.064.56-.156,1.117a3.078,3.078,0,0,0-.737-.089h-.6a7.828,7.828,0,0,0-2.3.335,4.814,4.814,0,0,0-1.966,1.184,5.887,5.887,0,0,0-1.384,2.323,11.723,11.723,0,0,0-.514,3.8V42.851a10.864,10.864,0,0,1-1.095.134q-.6.045-1.094.044-.548,0-1.095-.044-.572-.042-1.139-.134V19.935ZM73,7.7a4.44,4.44,0,0,1-.285,1.566,4.446,4.446,0,0,1-1.566.285h-.007a4.442,4.442,0,0,1-1.566-.285A4.435,4.435,0,0,1,69.291,7.7V7.692a4.44,4.44,0,0,1,.284-1.566,4.431,4.431,0,0,1,1.566-.285h.006a4.424,4.424,0,0,1,1.566.285A4.432,4.432,0,0,1,73,7.692V7.7h0Zm5.458-1.24H74.13L77.19,3.4a7.445,7.445,0,0,0-1.748-1.748l-3.061,3.06V.383a7.45,7.45,0,0,0-1.232-.1h-.008a7.427,7.427,0,0,0-1.232.1V4.712L66.848,1.651a7.4,7.4,0,0,0-.946.8h0a7.462,7.462,0,0,0-.8.946l3.061,3.06H63.833s-.1.813-.1,1.234V7.7a7.418,7.418,0,0,0,.1,1.233h4.329L65.1,11.991a7.468,7.468,0,0,0,1.748,1.748l3.061-3.06v4.329a7.483,7.483,0,0,0,1.23.1h.01a7.481,7.481,0,0,0,1.23-.1V10.679l3.061,3.061a7.474,7.474,0,0,0,.947-.8h0a7.488,7.488,0,0,0,.8-.947l-3.06-3.061h4.329a7.442,7.442,0,0,0,.1-1.231V7.69a7.452,7.452,0,0,0-.1-1.23h0ZM0,42.226,12.061,23.464H1.429A10.947,10.947,0,0,1,1.3,21.678a10.637,10.637,0,0,1,.134-1.743h17.2l.224.582L6.7,39.323H18.092a12.342,12.342,0,0,1,.134,1.831,10.328,10.328,0,0,1-.134,1.7H.224L0,42.226ZM34.8,32.085q-.67-.088-1.7-.178t-1.741-.089a7.267,7.267,0,0,0-4.221,1.028,3.572,3.572,0,0,0-1.452,3.127,3.839,3.839,0,0,0,.491,2.1,3.379,3.379,0,0,0,1.228,1.162,4.254,4.254,0,0,0,1.63.492q.893.089,1.7.089a20.882,20.882,0,0,0,2.122-.112,12.732,12.732,0,0,0,1.943-.335V32.085Zm0-4.332q0-2.637-1.34-3.664a6.3,6.3,0,0,0-3.886-1.028,16.5,16.5,0,0,0-2.926.246,22.385,22.385,0,0,0-2.659.647,6.952,6.952,0,0,1-.848-3.529,20.564,20.564,0,0,1,3.349-.759,24.342,24.342,0,0,1,3.529-.268q4.467,0,6.79,2.033t2.323,6.5V42.271q-1.564.357-3.8.737a27.208,27.208,0,0,1-4.556.38,17.827,17.827,0,0,1-3.953-.4,8.071,8.071,0,0,1-2.993-1.3,6,6,0,0,1-1.9-2.278,7.642,7.642,0,0,1-.67-3.351,6.828,6.828,0,0,1,2.9-5.785,9.464,9.464,0,0,1,3.082-1.429,14.023,14.023,0,0,1,3.663-.469q1.429,0,2.345.068T34.8,28.6v-.849ZM48.377,39.1a8.766,8.766,0,0,0,1.742.447,16.184,16.184,0,0,0,2.323.134,8.169,8.169,0,0,0,2.947-.513,5.853,5.853,0,0,0,2.3-1.586,7.751,7.751,0,0,0,1.519-2.7,11.952,11.952,0,0,0,.559-3.864,10.6,10.6,0,0,0-1.318-5.673,4.7,4.7,0,0,0-4.311-2.1,5.818,5.818,0,0,0-2.144.4,5.3,5.3,0,0,0-1.832,1.206,5.958,5.958,0,0,0-1.3,2.033,7.849,7.849,0,0,0-.492,2.926V39.1h0ZM43.955,19.935q.454-.089.916-.134.479-.044.961-.044c.3,0,.609.015.938.044a9.29,9.29,0,0,1,.938.134,2.808,2.808,0,0,1,.112.559q.066.469.134,1c.045.358.089.7.134,1.028s.067.537.067.626a9.073,9.073,0,0,1,1.072-1.385,7.161,7.161,0,0,1,1.5-1.206,7.83,7.83,0,0,1,1.965-.849,8.852,8.852,0,0,1,2.434-.313,10.188,10.188,0,0,1,3.73.671A7.464,7.464,0,0,1,61.8,22.146a9.993,9.993,0,0,1,1.921,3.574,16.885,16.885,0,0,1,.692,5.115q0,5.9-3.194,9.225t-9.045,3.328a15.55,15.55,0,0,1-2.01-.134,11.942,11.942,0,0,1-1.787-.357v10.5q-.566.092-1.138.134-.6.044-1.1.044-.548,0-1.094-.044a10.791,10.791,0,0,1-1.094-.134V19.935Z" transform="translate(0 -0.28)"/></svg>