<svg xmlns="http://www.w3.org/2000/svg" width="12.344" height="15.028" viewBox="0 0 12.344 15.028"><defs><style>.a{fill:#0d0c0c;}</style></defs><path class="a" d="M17.956,39.108a3.569,3.569,0,0,0,1.8-3.21,3.626,3.626,0,0,0-2.3-3.495,6.818,6.818,0,0,0-2.689-.4H8.537A.537.537,0,0,0,8,32.537v1.109a.537.537,0,0,0,.537.537H9.647V44.867H8.537A.537.537,0,0,0,8,45.4v1.088a.537.537,0,0,0,.537.537H15.1a7.83,7.83,0,0,0,2.243-.254,4.206,4.206,0,0,0,3-4.106A3.506,3.506,0,0,0,17.956,39.108Zm-5.453-4.8h2.262a2.838,2.838,0,0,1,1.259.225,1.781,1.781,0,0,1,.835,1.659,1.712,1.712,0,0,1-1.779,1.9H12.5Zm3.778,10.247a3,3,0,0,1-1.054.165H12.5V40.384h2.83A1.97,1.97,0,0,1,17.447,42.5,2.147,2.147,0,0,1,16.281,44.555Z" transform="translate(-8 -32)"/></svg>