<svg xmlns="http://www.w3.org/2000/svg" width="90.695" height="68.021" viewBox="0 0 90.695 68.021"><defs><style>.a{fill:#4a4649;}</style></defs><path class="a" d="M82.192,132.021H8.5a8.5,8.5,0,0,1-8.5-8.5V72.5A8.5,8.5,0,0,1,8.5,64h73.69a8.5,8.5,0,0,1,8.5,8.5v51.016A8.5,8.5,0,0,1,82.192,132.021ZM19.84,73.92a9.92,9.92,0,1,0,9.92,9.92A9.92,9.92,0,0,0,19.84,73.92Zm-8.5,46.765H79.358v-19.84l-15.5-15.5a2.126,2.126,0,0,0-3.006,0l-24,24-9.834-9.834a2.126,2.126,0,0,0-3.006,0L11.337,112.182Z" transform="translate(0 -64)"/></svg>