<svg xmlns="http://www.w3.org/2000/svg" width="13.107" height="13.207" viewBox="0 0 13.107 13.207"><defs><style>.a{fill:#0d0c0c;}</style></defs><path class="a" d="M32.738,43.32H31.107L34.1,33.887h1.963a.77.77,0,0,0,.757-.381l.3-.943c.093-.291-.272-.562-.757-.562h-7.7a.77.77,0,0,0-.757.381l-.3.943c-.093.291.272.562.757.562H30L27,43.32H25.1a.77.77,0,0,0-.757.381l-.3.943c-.093.291.272.562.757.562h7.638a.77.77,0,0,0,.757-.381l.3-.943C33.588,43.591,33.224,43.32,32.738,43.32Z" transform="translate(-24.028 -32)"/></svg>