<svg xmlns="http://www.w3.org/2000/svg" xmlns:xlink="http://www.w3.org/1999/xlink" width="136.975" height="38.83" viewBox="0 0 136.975 38.83"><defs><style>.a{fill:none;}.b{clip-path:url(#a);}.c{fill:#33475b;}.d{clip-path:url(#b);}.e{fill:#ff7a59;}</style><clipPath id="a"><rect class="a" width="136.975" height="38.83"/></clipPath><clipPath id="b"><rect class="a" width="36.598" height="38.219"/></clipPath></defs><g transform="translate(0 1.17)"><g transform="translate(0 -1.17)"><g class="b" transform="translate(0 0)"><path class="c" d="M14.834,26.3V37.252H4.775V26.3H0V52.444H4.775v-10.6H14.834v10.6h4.775V26.3Z" transform="translate(0 -19.873)"/><g transform="translate(22.461 6.427)"><path class="c" d="M108.431,66.428a3.951,3.951,0,1,1-7.9,0V55.23H96v11.2a8.472,8.472,0,0,0,16.944,0V55.23h-4.513Z" transform="translate(-96 -48.735)"/><path class="c" d="M274.806,35.118c0-2.3,1.518-3.023,3.182-3.023a6.789,6.789,0,0,1,4.27,2.258l2.967-3.5a9.346,9.346,0,0,0-6.944-3.388c-4.913,0-8.467,2.878-8.467,7.648,0,8.851,10.819,6.043,10.819,11a3.123,3.123,0,0,1-3.182,2.878c-2.679,0-3.547-1.31-4.778-2.7l-3.292,3.423a9.716,9.716,0,0,0,7.815,3.9c4.668,0,8.423-2.913,8.423-7.466,0-9.827-10.819-6.773-10.819-11.034" transform="translate(-228.814 -27.47)"/><path class="c" d="M552.34,55.857c-2.677,0-3.437-1.158-3.437-2.932v-7.85h4.16V41.1H548.9V35.85l-4.593,2.061V53.9c0,4.09,2.822,6.151,6.692,6.151a9.269,9.269,0,0,0,1.811-.145l1.121-4.125c-.505.035-1.086.07-1.593.07" transform="translate(-439.419 -33.889)"/><path class="c" d="M190.539,34.609a6.951,6.951,0,0,0-5.323,2.136V28.14H180.68V44.09c0,5.971,4.317,10.061,9.167,10.061a9.938,9.938,0,0,0,10.115-9.768,9.6,9.6,0,0,0-9.422-9.771m-.028,14.974a5.147,5.147,0,1,1,5.147-5.147,5.147,5.147,0,0,1-5.147,5.147" transform="translate(-160.867 -27.983)"/><path class="c" d="M370.231,64.558a9.927,9.927,0,0,0-10.115-9.768c-4.85,0-9.167,4.09-9.167,10.061V80.81h4.537V72.193a6.954,6.954,0,0,0,5.32,2.136,9.6,9.6,0,0,0,9.422-9.771m-4.293-.056a5.147,5.147,0,1,1-5.147-5.147,5.147,5.147,0,0,1,5.147,5.147" transform="translate(-291.299 -48.398)"/></g><g class="d" transform="translate(87.947 0.03)"><path class="e" d="M404.813,13.643V9.132a3.472,3.472,0,0,0,2-3.131V5.9a3.479,3.479,0,0,0-3.47-3.47h-.105a3.479,3.479,0,0,0-3.47,3.47V6a3.472,3.472,0,0,0,2,3.131v4.511a9.841,9.841,0,0,0-4.679,2.059L384.708,6.065a3.872,3.872,0,0,0,.14-.976A3.914,3.914,0,1,0,380.93,9a3.872,3.872,0,0,0,1.935-.526l12.178,9.48a9.869,9.869,0,0,0,.152,11.128l-3.706,3.706a3.185,3.185,0,0,0-.919-.15,3.217,3.217,0,1,0,3.217,3.217,3.165,3.165,0,0,0-.15-.919l3.666-3.666a9.885,9.885,0,1,0,7.51-17.625m-1.518,14.838a5.072,5.072,0,1,1,5.073-5.072,5.072,5.072,0,0,1-5.073,5.072" transform="translate(-376.756 -0.927)"/></g></g></g></g></svg>