<svg xmlns="http://www.w3.org/2000/svg" width="16.548" height="16.548" viewBox="0 0 16.548 16.548"><defs><style>.a{fill:#0d0c0c;}</style></defs><path class="a" d="M10.556,5.991a4.91,4.91,0,0,1,.012,6.936l-.012.012L8.384,15.111A4.913,4.913,0,0,1,1.436,8.163l1.2-1.2a.517.517,0,0,1,.882.343,5.955,5.955,0,0,0,.313,1.7.52.52,0,0,1-.122.537l-.423.423a2.327,2.327,0,1,0,3.27,3.312l2.172-2.172a2.326,2.326,0,0,0,0-3.291,2.421,2.421,0,0,0-.334-.277.518.518,0,0,1-.225-.407,1.287,1.287,0,0,1,.378-.963l.68-.68a.519.519,0,0,1,.665-.056,4.928,4.928,0,0,1,.663.556Zm4.555-4.555a4.918,4.918,0,0,0-6.948,0L5.991,3.608,5.98,3.62a4.914,4.914,0,0,0,.675,7.491.519.519,0,0,0,.665-.056l.68-.68a1.287,1.287,0,0,0,.378-.963A.518.518,0,0,0,8.154,9a2.421,2.421,0,0,1-.334-.277,2.326,2.326,0,0,1,0-3.291L9.991,3.264a2.327,2.327,0,1,1,3.27,3.312L12.838,7a.52.52,0,0,0-.122.537,5.955,5.955,0,0,1,.313,1.7.517.517,0,0,0,.882.343l1.2-1.2a4.918,4.918,0,0,0,0-6.947Z" transform="translate(0.001 0)"/></svg>