<svg xmlns="http://www.w3.org/2000/svg" width="18.089" height="15.896" viewBox="0 0 18.089 15.896"><defs><style>.a{fill:#0d0c0c;}</style></defs><path class="a" d="M2.247,35.815a.367.367,0,0,1,.411-.411h.537V33.99c0-.183.019-.373.019-.373H3.2a1.214,1.214,0,0,1-.1.133.364.364,0,0,1-.556-.038l-.2-.221a.365.365,0,0,1,.019-.581l.771-.707A.676.676,0,0,1,3.65,32h.43a.369.369,0,0,1,.417.411V35.4h.55a.367.367,0,0,1,.411.411v.316a.367.367,0,0,1-.411.411H2.658a.367.367,0,0,1-.411-.411ZM2.21,41.672c0-1.678,1.808-2,1.808-2.454a.3.3,0,0,0-.329-.311.479.479,0,0,0-.335.137c-.18.174-.373.249-.572.087l-.3-.242a.352.352,0,0,1-.1-.547,1.719,1.719,0,0,1,1.435-.665,1.438,1.438,0,0,1,1.578,1.4c0,1.361-1.659,1.646-1.727,2.019H5.049a.366.366,0,0,1,.41.4v.311a.366.366,0,0,1-.41.4H2.639a.388.388,0,0,1-.429-.4v-.143ZM2.332,47l.2-.329c.137-.236.323-.249.553-.112a1.281,1.281,0,0,0,.51.112c.36,0,.509-.124.509-.292,0-.236-.2-.323-.565-.323H3.37a.431.431,0,0,1-.435-.28L2.9,45.7a.47.47,0,0,1,.1-.528l.2-.249a5.249,5.249,0,0,1,.435-.478v-.012a2.051,2.051,0,0,1-.447.037h-.46a.361.361,0,0,1-.4-.4v-.311a.359.359,0,0,1,.4-.4H4.8a.361.361,0,0,1,.4.4v.118a.708.708,0,0,1-.18.5l-.621.715A1.279,1.279,0,0,1,5.42,46.331,1.556,1.556,0,0,1,3.7,47.9a2.374,2.374,0,0,1-1.274-.335A.384.384,0,0,1,2.332,47ZM7.241,35.548h12.49a.568.568,0,0,0,.568-.568V33.561a.568.568,0,0,0-.568-.568H7.241a.568.568,0,0,0-.568.568v1.419A.568.568,0,0,0,7.241,35.548Zm0,5.677h12.49a.568.568,0,0,0,.568-.568V39.239a.568.568,0,0,0-.568-.568H7.241a.568.568,0,0,0-.568.568v1.419A.568.568,0,0,0,7.241,41.226Zm0,5.677h12.49a.568.568,0,0,0,.568-.568V44.916a.568.568,0,0,0-.568-.568H7.241a.568.568,0,0,0-.568.568v1.419A.568.568,0,0,0,7.241,46.9Z" transform="translate(-2.21 -32)"/></svg>