<svg xmlns="http://www.w3.org/2000/svg" width="18.498" height="15.029" viewBox="0 0 18.498 15.029"><defs><style>.a{fill:#0d0c0c;}</style></defs><path class="a" d="M3.468,49.734A1.734,1.734,0,1,1,1.734,48,1.734,1.734,0,0,1,3.468,49.734ZM1.734,53.78a1.734,1.734,0,1,0,1.734,1.734A1.734,1.734,0,0,0,1.734,53.78Zm0,5.78A1.734,1.734,0,1,0,3.468,61.3,1.734,1.734,0,0,0,1.734,59.561ZM5.2,51.035H17.92a.578.578,0,0,0,.578-.578V49.012a.578.578,0,0,0-.578-.578H5.2a.578.578,0,0,0-.578.578v1.445A.578.578,0,0,0,5.2,51.035Zm0,5.78H17.92a.578.578,0,0,0,.578-.578V54.792a.578.578,0,0,0-.578-.578H5.2a.578.578,0,0,0-.578.578v1.445A.578.578,0,0,0,5.2,56.815Zm0,5.78H17.92a.578.578,0,0,0,.578-.578V60.573a.578.578,0,0,0-.578-.578H5.2a.578.578,0,0,0-.578.578v1.445A.578.578,0,0,0,5.2,62.6Z" transform="translate(0 -48)"/></svg>