<svg xmlns="http://www.w3.org/2000/svg" width="51.401" height="53.793" viewBox="0 0 51.401 53.793"><path d="M51.222,67.029a2.83,2.83,0,0,0-1.963-1.547,8.114,8.114,0,0,0-.743-2.117c.156-.178.307-.357.341-.4a2.732,2.732,0,0,0-1.7-4.362,11.734,11.734,0,0,0-3.187-2.149c-.857-.429-.515-.261-1.32-.623-.214-1.046-.285-3.479-.624-5.186a5.37,5.37,0,0,0-1.868-3.38A7.512,7.512,0,0,0,38.6,45.007c2.983-4.573,3.768-9.089,1.584-11.454A5.439,5.439,0,0,0,36.04,32a17.164,17.164,0,0,0-8.446,2.827L25.584,33.21C17.17,26.583-6.63,55.869,1.771,62.269L3.94,63.926a7.706,7.706,0,0,0,4.478,9.751,6.956,6.956,0,0,0,2.8.421s6.375,11.691,19.825,11.694C46.6,85.8,50.559,70.577,50.6,70.44,50.6,70.441,51.862,68.578,51.222,67.029Zm-48.8-6.7C.713,57.455,3.68,51.544,5.791,48.184c5.217-8.3,13.9-14.856,17.845-13.92l1.084-.415,2.966,2.506a18.366,18.366,0,0,1,7.06-2.719,18.609,18.609,0,0,0-5.409,2.4,67.129,67.129,0,0,0-8.1,6.426c-1.663,1.649-8.339,9.655-8.333,9.648a31.987,31.987,0,0,1,3.955-5.872c1.093-1.374,2.259-2.71,3.451-3.943.554-.573,1.114-1.124,1.675-1.646.385-.359.773-.7,1.159-1.035.178-.152.355-.3.532-.445h0l-3.913-3.231.207,1.448,2.845,2.506s-2.517,1.694-3.769,2.763C14.031,46.937,9.106,53.51,7.274,59.909l.088,0a8.157,8.157,0,0,0-2.609,2.408,15.813,15.813,0,0,1-2.334-1.981Zm8.3,12.018a5.738,5.738,0,0,1,0-11.46,5.2,5.2,0,0,1,2.19.483s1.156.584,1.482,3.339a13.289,13.289,0,0,0,.509-1.568,9.911,9.911,0,0,1,.508,3.694,7.56,7.56,0,0,0,.666-1.233A5.65,5.65,0,0,1,10.717,72.35Zm6.7-20.236A20.6,20.6,0,0,1,24.9,44.721a7.957,7.957,0,0,0-1.484.077,9.541,9.541,0,0,1,3.87-1.584,4.048,4.048,0,0,0-1.6-.291,2.538,2.538,0,0,0-.267,0,8.54,8.54,0,0,1,5.121-.666,2.451,2.451,0,0,0-1.161-.662l-.183-.047.143-.034a6.639,6.639,0,0,1,3.542.443,2.856,2.856,0,0,0-.635-.809c-.023-.022-.155-.116-.155-.116A8.444,8.444,0,0,1,35.058,42.3a4.045,4.045,0,0,0-.563-.755,4.44,4.44,0,0,1,2.756,2.14c.012.024.044.113.048.124-2.005-1.542-7.858-1.1-13.718,2.692A24.232,24.232,0,0,0,17.417,52.114ZM49.035,69.686a13.872,13.872,0,0,1-5.026,7.446c-5.328,4.186-12.327,3.762-14.97,1.417a8.571,8.571,0,0,1-2.023-3.21s-.16,1.065-.187,1.483a8.3,8.3,0,0,1-.975-4.025s-.568,1.06-.829,1.653a8.111,8.111,0,0,1-.379-4.056l-.62.925a9.886,9.886,0,0,1,.423-4.139,9.32,9.32,0,0,1,2.535-3.653,9.474,9.474,0,0,1-2.418-1.382,3.726,3.726,0,0,0,.872-.048,7.129,7.129,0,0,1-2.668-4.114,5.7,5.7,0,0,0,1.019.866,8.79,8.79,0,0,1-.15-3.525h0a5.2,5.2,0,0,1,5.216-4.475c2.707.024,4.521.592,6.79-1.5a3.2,3.2,0,0,1,1.538-.974,1.928,1.928,0,0,1,.609-.09,2,2,0,0,1,1.041.275c1.231.732,1.5,2.643,1.628,4.044.489,5.2.292,4.271,2.394,5.342a10.41,10.41,0,0,1,3.414,2.368l.01.011H46.3c1.082.026,1.639.878,1.141,1.5A18.838,18.838,0,0,1,33.086,68.4l-.761.018c-2.283.07-3.025,3.021-1.593,4.8a5.339,5.339,0,0,0,4.079,1.5l.02-.007c6.178.125,12.385-4.247,13.457-6.657.007-.018.073-.171.073-.171-.249.292-6.266,5.957-13.578,5.752a8.669,8.669,0,0,1-1.553-.192,2.415,2.415,0,0,1-2.035-1.657,11.765,11.765,0,0,0,2.266.2c5.279,0,9.081-2.4,8.685-2.432a.269.269,0,0,0-.058.01c-.616.143-6.961,2.6-10.971,1.34a1.934,1.934,0,0,1,.058-.348c.357-1.195.991-1.028,2.016-1.072a22.17,22.17,0,0,0,8.826-2.093A16.924,16.924,0,0,0,46.822,64.1a7.178,7.178,0,0,1,.836,3.232,2.555,2.555,0,0,1,.766-.115C49.791,67.214,50.073,68.441,49.035,69.686ZM31.109,71.331c0-.006,0-.012,0-.018A.091.091,0,0,1,31.109,71.331Zm0-.025c0-.016,0-.031,0-.047,0-.078,0-.16,0-.243,0,.089,0,.171,0,.243C31.107,71.275,31.107,71.291,31.108,71.306Zm.014.175a.015.015,0,0,0,0,.007A.015.015,0,0,0,31.122,71.481Zm0,.014a1.1,1.1,0,0,0,.066.288A1.056,1.056,0,0,1,31.125,71.5ZM23.292,35.324l.345-1.06.586,2.128-.724-.234Zm2.687,2.128-.435-1.512,1.2,1C26.473,37.116,26.218,37.287,25.98,37.451Zm5.128,33.854c0-.016,0-.031,0-.047C31.107,71.275,31.107,71.291,31.108,71.306Zm0-.047c0-.078,0-.16,0-.243C31.1,71.106,31.1,71.187,31.107,71.259Zm0,.072c0-.006,0-.012,0-.018m.016.175a.015.015,0,0,0,0-.007m0,.014a1.1,1.1,0,0,0,.066.288A1.056,1.056,0,0,1,31.125,71.5Zm6.256-16.644c-.008-.4.056-1.071.436-1.195h0c.65-.226,1.511,1.439,1.55,2.915a3.256,3.256,0,0,0-1.738-.312,5.039,5.039,0,0,1-.25-1.408ZM24.663,38.4,23.032,37.03l2.47.754C25.183,38.01,24.9,38.216,24.663,38.4ZM27.99,58.442a2.677,2.677,0,0,1-.841.257c-.227-.034-.007-.45.49-.854a3.7,3.7,0,0,1,3.546-.609,3.063,3.063,0,0,1,1.393,1.007c.114.167.145.293.1.346-.092.108-.421-.037-.907-.227a4.632,4.632,0,0,0-3.78.079Zm1.747,1.745c-.277.113-.457.2-.531.14s0-.291.258-.542a2.22,2.22,0,0,1,.729-.453.951.951,0,0,1,.132-.046,3.387,3.387,0,0,1,.388-.1c1.1-.186,1.9.421,1.793.6-.047.083-.25.064-.552.043a4.464,4.464,0,0,0-2.217.354ZM7.31,66.957Zm2.918-3.1a2.457,2.457,0,0,0-.317.082.842.842,0,0,0-.092.03c-.07.032-.133.054-.195.088a2.559,2.559,0,0,0-.844.658,3.163,3.163,0,0,0-.623,2.122,3.072,3.072,0,0,0,.282,1.228c.166.355-.222.429-.575.047h0a2.542,2.542,0,0,1-.552-1.16,3.422,3.422,0,0,1,2.115-4.031c.1-.038.209-.061.3-.088h0a3.761,3.761,0,0,1,1.449-.08,2.876,2.876,0,0,1,1.721.921h0a1.8,1.8,0,0,1,.491,1.264h0c-.016.18-.095.438-.257.506a.145.145,0,0,1-.163-.03c-.118-.115-.026-.352-.312-.756A2.318,2.318,0,0,0,10.228,63.861ZM13.864,67.6A2.076,2.076,0,0,1,12,70.089c-.8.018-1.238-.483-1.16-.592.036-.052.159-.029.346,0a1.494,1.494,0,0,0,1.789-1.116,1.63,1.63,0,0,0,.041-.3A1.291,1.291,0,0,0,13,67.768c-.12-.675-.895-.8-1.393-1.339a1.047,1.047,0,0,1-.078-1.406c.337-.333.82-.211.814-.094,0,.062-.116.109-.261.209a.387.387,0,0,0-.165.478.5.5,0,0,0,.2.291c.418.331,1.543.564,1.747,1.7Zm25.561-9.783c.31.048.507.431.441.856s-.371.73-.681.681-.507-.431-.441-.856S39.115,57.773,39.424,57.821Zm-3.4,1.238a.924.924,0,1,1,.463.985A.788.788,0,0,1,36.023,59.059Z" transform="translate(-0.003 -32)"/></svg>