<svg xmlns="http://www.w3.org/2000/svg" width="200.667" height="40" viewBox="0 0 200.667 40"><defs><style>.a{fill:#fb6970;}.b,.c{fill:#212f4f;}.c{fill-rule:evenodd;}</style></defs><g transform="translate(0)"><path class="a" d="M20.909,31.579c7.525,0,13.341-5.655,13.341-12.631,0-6.536-5.464-10.526-9.083-10.526a9.519,9.519,0,0,0-9.655,8.741,1.923,1.923,0,0,1-1.855,1.771c-1.625-.012-3.988-.025-5.483-.02A1.122,1.122,0,0,1,7.03,17.755,19.268,19.268,0,0,1,11.681,5.737,17.654,17.654,0,0,1,25.167,0c9.345,0,18.166,8.447,18.166,18.947C43.333,30.574,33.649,40,21.108,40,12.164,40,3.156,34.185.011,26.056A.174.174,0,0,1,0,25.962a3.684,3.684,0,0,1,.207-.677,2.385,2.385,0,0,0,.218-.977L.374,23.176a1.379,1.379,0,0,1,.8-1.316l.455-.211a1.749,1.749,0,0,0,.989-1.269,1.762,1.762,0,0,1,1.741-1.434A3.134,3.134,0,0,1,7.3,21.087C9.4,27.134,12.734,31.579,20.909,31.579Z"/><path class="b" d="M278.334,19c-1.785,0-2.334-.939-2.334-2,0-1.121.446-2,2.334-2s2.333.879,2.333,2C280.667,18.061,280.187,19,278.334,19Z" transform="translate(-92 -5)"/><path class="b" d="M233.3,33.419V25.3l-2.3-.011v-.945a1.852,1.852,0,0,1,1.856-1.858l.441,0V19.043L236.972,18v4.487h3.33v.954a1.852,1.852,0,0,1-1.847,1.858h-1.483v7.646a1.579,1.579,0,0,0,1.518,1.733,2.041,2.041,0,0,1,1.843,1.926V38C236.853,38,233.3,37.846,233.3,33.419Z" transform="translate(-77 -6)"/><path class="c" d="M119.3,24c-3.721-.095-8.3,2.24-8.3,8.076,0,5.742,4.58,8.013,8.3,7.918,3.817.095,8.365-2.177,8.365-7.918C127.667,26.243,123.118,23.908,119.3,24Zm.028,13.129c-2.7,0-4.622-1.954-4.622-5.171,0-3.06,1.919-5.076,4.623-5.076s4.6,2.012,4.6,5.072C123.932,35.174,122.033,37.132,119.329,37.132Z" transform="translate(-37 -8)"/><path class="b" d="M147.337,24c3.267,0,6.663.9,6.663,7.355V40h-2.089a1.89,1.89,0,0,1-1.883-1.9V31.032c0-3.065-1.121-4.226-3.075-4.226a5.355,5.355,0,0,0-3.171,1.516V38.1A1.89,1.89,0,0,1,141.9,40H140V24.387h2.113a1.614,1.614,0,0,1,1.571,1.258A4.8,4.8,0,0,1,147.337,24Z" transform="translate(-46.667 -8)"/><path class="b" d="M165.739,25a1.9,1.9,0,0,1,1.793,1.236L171,35.74l3.468-9.5A1.9,1.9,0,0,1,176.261,25H179l-5.648,14.148a1.9,1.9,0,0,1-1.774,1.185h-2.424L163,25Z" transform="translate(-54.333 -8.333)"/><path class="c" d="M201.817,39.886A17.784,17.784,0,0,1,195.738,41C191.356,41,188,38.485,188,32.818c0-5.094,3.253-7.818,7.219-7.818,4.895,0,6.983,3.271,6.765,7.723a1.727,1.727,0,0,1-1.775,1.591h-8.438c.192,2.483,2.015,3.789,4.413,3.789a16.4,16.4,0,0,0,3.119-.268,2.073,2.073,0,0,1,2.512,1.932ZM198.6,31.7a3.21,3.21,0,0,0-3.378-3.774c-1.983,0-3.32,1.482-3.447,3.774Z" transform="translate(-62.667 -8.333)"/><path class="b" d="M216.047,24.387a1.573,1.573,0,0,1,1.531,1.194A7.627,7.627,0,0,1,221.642,24a13.146,13.146,0,0,1,1.691.129V25.8a1.641,1.641,0,0,1-1.691,1.584,8.5,8.5,0,0,0-3.772,1.065V40H214V24.387Z" transform="translate(-71.333 -8)"/><path class="b" d="M281,38.471V25h-2.007A1.931,1.931,0,0,0,277,26.863V40.333h2.007A1.931,1.931,0,0,0,281,38.471Z" transform="translate(-92.333 -8.333)"/><path class="b" d="M288.607,33.419V25.3H286v-.954a1.9,1.9,0,0,1,1.941-1.858h.667V19.043L292.469,18v4.487h3.5v.954a1.9,1.9,0,0,1-1.941,1.858h-1.558v7.646a1.611,1.611,0,0,0,1.595,1.733A2.088,2.088,0,0,1,296,36.6V38C292.344,38,288.607,37.846,288.607,33.419Z" transform="translate(-95.333 -6)"/><path class="b" d="M83,26.333C83.024,19.063,88.534,15,93.822,15a13.25,13.25,0,0,1,7.845,2.2l-.9,1.223a2.326,2.326,0,0,1-2.682.771,9.6,9.6,0,0,0-3.531-.637c-4.327,0-7.59,2.766-7.613,7.772.023,5.005,3.286,7.812,7.613,7.812a9.6,9.6,0,0,0,3.531-.637,2.31,2.31,0,0,1,2.682.732l.9,1.223a13.251,13.251,0,0,1-7.845,2.2C88.534,37.667,83.024,33.6,83,26.333Z" transform="translate(-27.667 -5)"/><path class="b" d="M251.01,15a1.888,1.888,0,0,1,1.9,1.877v8.607l7.775-9.655a1.907,1.907,0,0,1,1.529-.764h3.453l-8.79,10.97L265.667,37h-3.453a1.907,1.907,0,0,1-1.529-.764l-7.775-9.653v8.539A1.888,1.888,0,0,1,251.01,37H249V15Z" transform="translate(-83 -5)"/></g></svg>