<svg xmlns="http://www.w3.org/2000/svg" width="15.361" height="13.441" viewBox="0 0 15.361 13.441"><defs><style>.a{fill:#0d0c0c;}</style></defs><path class="a" d="M13.921,38.72h-2.4V36.8a1.922,1.922,0,0,1,1.92-1.92h.24a.718.718,0,0,0,.72-.72V32.72a.718.718,0,0,0-.72-.72h-.24a4.8,4.8,0,0,0-4.8,4.8V44a1.44,1.44,0,0,0,1.44,1.44h3.84A1.44,1.44,0,0,0,15.361,44V40.16A1.44,1.44,0,0,0,13.921,38.72Zm-8.64,0H2.88V36.8A1.922,1.922,0,0,1,4.8,34.88h.24a.718.718,0,0,0,.72-.72V32.72A.718.718,0,0,0,5.04,32H4.8A4.8,4.8,0,0,0,0,36.8V44a1.44,1.44,0,0,0,1.44,1.44H5.28A1.44,1.44,0,0,0,6.72,44V40.16A1.44,1.44,0,0,0,5.28,38.72Z" transform="translate(0 -32)"/></svg>